HIERARCHY
ROOT Hips
{
	OFFSET 0.000000 0.000000 0.000000
	CHANNELS 6 Xposition Yposition Zposition Zrotation Yrotation Xrotation 
	JOINT LHipJoint
	{
		OFFSET 0.000000 0.000000 0.000000
		CHANNELS 3 Zrotation Yrotation Xrotation
		JOINT LeftUpLeg
		{
			OFFSET 1.363060 -1.794630 0.839290
			CHANNELS 3 Zrotation Yrotation Xrotation
			JOINT LeftLeg
			{
				OFFSET 2.448110 -6.726130 0.000000
				CHANNELS 3 Zrotation Yrotation Xrotation
				JOINT LeftFoot
				{
					OFFSET 2.562200 -7.039590 0.000000
					CHANNELS 3 Zrotation Yrotation Xrotation
					JOINT LeftToeBase
					{
						OFFSET 0.157640 -0.433110 2.322550
						CHANNELS 3 Zrotation Yrotation Xrotation
						End Site
						{
							OFFSET 0.000000 0.000000 0.000000
						}
					}
				}
			}
		}
	}
	JOINT RHipJoint
	{
		OFFSET 0.000000 0.000000 0.000000
		CHANNELS 3 Zrotation Yrotation Xrotation
		JOINT RightUpLeg
		{
			OFFSET -1.305520 -1.794630 0.839290
			CHANNELS 3 Zrotation Yrotation Xrotation
			JOINT RightLeg
			{
				OFFSET -2.542530 -6.985550 0.000000
				CHANNELS 3 Zrotation Yrotation Xrotation
				JOINT RightFoot
				{
					OFFSET -2.568260 -7.056230 0.000000
					CHANNELS 3 Zrotation Yrotation Xrotation
					JOINT RightToeBase
					{
						OFFSET -0.164730 -0.452590 2.363150
						CHANNELS 3 Zrotation Yrotation Xrotation
						End Site
						{
							OFFSET 0.000000 0.000000 0.000000
						}
					}
				}
			}
		}
	}
	JOINT LowerBack
	{
		OFFSET 0.000000 0.000000 0.000000
		CHANNELS 3 Zrotation Yrotation Xrotation
		JOINT Spine
		{
			OFFSET 0.028270 2.035590 -0.193380
			CHANNELS 3 Zrotation Yrotation Xrotation
			JOINT Spine1
			{
				OFFSET 0.056720 2.048850 -0.042750
				CHANNELS 3 Zrotation Yrotation Xrotation
				JOINT Neck
				{
					OFFSET 0.000000 0.000000 0.000000
					CHANNELS 3 Zrotation Yrotation Xrotation
					JOINT Neck1
					{
						OFFSET -0.054170 1.746240 0.172020
						CHANNELS 3 Zrotation Yrotation Xrotation
						JOINT Head
						{
							OFFSET 0.104070 1.761360 -0.123970
							CHANNELS 3 Zrotation Yrotation Xrotation
							End Site
							{
								OFFSET 0.000000 0.000000 0.000000
							}
						}
					}
				}
				JOINT LeftShoulder
				{
					OFFSET 0.000000 0.000000 0.000000
					CHANNELS 3 Zrotation Yrotation Xrotation
					JOINT LeftArm
					{
						OFFSET 3.362410 1.200890 -0.311210
						CHANNELS 3 Zrotation Yrotation Xrotation
						JOINT LeftForeArm
						{
							OFFSET 4.983000 -0.000000 -0.000000
							CHANNELS 3 Zrotation Yrotation Xrotation
							JOINT LeftHand
							{
								OFFSET 3.483560 -0.000000 -0.000000
								CHANNELS 3 Zrotation Yrotation Xrotation
								JOINT LeftFingerBase
								{
									OFFSET 0.000000 0.000000 0.000000
									CHANNELS 3 Zrotation Yrotation Xrotation
									JOINT LeftHandIndex1
									{
										OFFSET 0.715260 -0.000000 -0.000000
										CHANNELS 3 Zrotation Yrotation Xrotation
										End Site
										{
											OFFSET 0.000000 0.000000 0.000000
										}
									}
								}
								JOINT LThumb
								{
									OFFSET 0.000000 0.000000 0.000000
									CHANNELS 3 Zrotation Yrotation Xrotation
									End Site
									{
										OFFSET 0.000000 0.000000 0.000000
									}
								}
							}
						}
					}
				}
				JOINT RightShoulder
				{
					OFFSET 0.000000 0.000000 0.000000
					CHANNELS 3 Zrotation Yrotation Xrotation
					JOINT RightArm
					{
						OFFSET -3.136600 1.374050 -0.404650
						CHANNELS 3 Zrotation Yrotation Xrotation
						JOINT RightForeArm
						{
							OFFSET -5.241900 -0.000000 -0.000000
							CHANNELS 3 Zrotation Yrotation Xrotation
							JOINT RightHand
							{
								OFFSET -3.444170 -0.000000 -0.000000
								CHANNELS 3 Zrotation Yrotation Xrotation
								JOINT RightFingerBase
								{
									OFFSET 0.000000 0.000000 0.000000
									CHANNELS 3 Zrotation Yrotation Xrotation
									JOINT RightHandIndex1
									{
										OFFSET -0.622530 -0.000000 -0.000000
										CHANNELS 3 Zrotation Yrotation Xrotation
										End Site
										{
											OFFSET 0.000000 0.000000 0.000000
										}
									}
								}
								JOINT RThumb
								{
									OFFSET 0.000000 0.000000 0.000000
									CHANNELS 3 Zrotation Yrotation Xrotation
									End Site
									{
										OFFSET 0.000000 0.000000 0.000000
									}
								}
							}
						}
					}
				}
			}
		}
	}
}
MOTION
Frames: 7
Frame Time: 0.008333
-1.159032 15.729950 -5.886630 -2.286762 -30.728790 2.545684 -9.852765 27.883992 -2.427031 -14.081706 -8.893065 -22.155698 39.778586 5.293374 90.599658 73.891879 -31.445944 -9.227436 -8.801684 31.446168 -7.491294 6.132502 -34.611824 -15.033114 43.048429 14.344796 -17.255583 -29.391981 6.824935 60.901300 -40.512524 17.283397 -11.655278 7.743111 -6.064821 -12.741068 -0.342916 5.648252 31.201690 15.575309 7.454012 14.134810 -7.481570 -7.154598 -35.779225 -6.276778 -0.184869 -13.001194 1.643609 -0.160183 4.487924 -2.175288 1.723050 -11.197541 5.572055 24.957323 1.149735 -73.209861 -10.113579 72.688811 169.280278 -87.237899 -165.938489 22.028048 -19.626382 22.725404 -8.374596 14.074729 0.000000 0.000000 0.000000 0.000000 0.000000 0.000000 0.000000 -8.028161 -34.402269 -4.100047 79.120568 5.591381 48.390612 2.100960 42.719660 15.151136 -4.345843 21.077757 6.750393 4.337568 -13.286090 -0.000000 0.000000 0.000000 0.000000 0.000000 0.000000 0.000000 
-1.278259 15.704450 -5.591700 -2.495486 -30.317100 2.224497 -9.678330 28.230109 -3.121967 -14.411816 -9.686398 -24.014475 39.026707 4.102795 92.054945 70.555098 -28.559492 -7.478721 -8.933555 29.370861 -7.750666 6.070793 -34.603185 -14.454615 42.643984 14.106215 -16.914957 -30.257969 6.792042 61.786784 -40.275944 16.380178 -12.602968 7.905994 -6.093514 -13.851229 -0.478202 5.471651 30.964535 15.413096 7.307467 14.800749 -6.763346 -6.475272 -36.506741 -6.375014 -0.428372 -13.221505 1.547190 -0.232655 4.879803 -2.181506 1.843835 -11.037788 5.358747 25.795218 1.291075 -72.043882 -9.913196 73.360087 167.348924 -88.407095 -165.158940 22.392699 -19.218668 23.284634 -8.343474 14.336514 0.000000 0.000000 0.000000 0.000000 0.000000 0.000000 0.000000 -7.059880 -34.136748 -4.593124 79.627015 6.645843 46.872760 1.814820 37.968089 13.866260 -3.418525 20.937343 5.403248 3.886776 -13.057349 -0.000000 0.000000 0.000000 0.000000 0.000000 0.000000 0.000000 
-1.393846 15.685055 -5.297505 -2.697400 -29.696912 1.937619 -9.507048 28.614177 -3.889086 -14.933652 -10.566249 -25.869093 38.016282 2.993641 93.194151 67.209497 -25.526316 -5.569830 -8.969174 27.092085 -7.969941 5.958262 -34.582730 -13.790579 42.005224 13.830996 -16.771708 -30.810343 6.605753 62.666245 -40.162789 15.548043 -13.482423 7.873030 -6.054601 -14.437637 -0.559313 5.262346 30.760106 15.265296 7.138119 15.302058 -6.103009 -5.846138 -37.010435 -6.462518 -0.655808 -13.512527 1.493201 -0.306283 5.273208 -2.184460 1.921431 -10.881574 5.155002 26.589226 1.399737 -70.863802 -9.819201 73.997459 165.549836 -89.292658 -164.481565 22.597750 -18.857117 23.677052 -8.330980 14.528322 0.000000 0.000000 0.000000 0.000000 0.000000 0.000000 0.000000 -6.155484 -33.857151 -4.783266 80.222920 7.667569 44.212119 1.451004 33.486946 12.203011 -2.214205 20.354858 3.649942 3.471989 -12.805543 -0.000000 0.000000 0.000000 0.000000 0.000000 0.000000 0.000000 
-1.503240 15.674885 -4.992285 -2.841738 -28.989603 1.646669 -9.321374 29.006800 -4.625358 -15.717792 -11.506916 -27.455364 36.921144 1.991965 93.825987 63.413096 -22.278049 -3.876463 -8.961620 24.805739 -8.196561 5.771342 -34.515499 -12.972507 41.026797 13.566196 -16.877220 -30.993071 6.238006 63.597384 -40.048714 14.781220 -14.417141 7.749225 -5.975689 -14.776417 -0.507396 5.010305 30.341212 15.111075 6.867374 16.029817 -5.625367 -5.299651 -37.355241 -6.564770 -0.828285 -13.897677 1.499450 -0.369101 5.594987 -2.178245 1.927725 -10.728186 4.974399 27.295398 1.533922 -69.651243 -9.784207 74.477699 163.764136 -89.659961 -164.103469 22.470663 -18.152297 23.664137 -8.295944 14.654911 0.000000 0.000000 0.000000 0.000000 0.000000 0.000000 0.000000 -5.406841 -33.711554 -4.714679 80.723476 8.603404 40.921728 1.148637 29.955288 10.328212 -1.202812 18.690899 2.023075 3.035433 -12.670326 -0.000000 0.000000 0.000000 0.000000 0.000000 0.000000 0.000000 
-1.609020 15.670625 -4.689540 -2.969645 -28.173740 1.384014 -9.149414 29.407347 -5.378079 -16.655762 -12.520479 -28.923091 35.632100 1.117756 94.066989 59.662039 -19.052286 -2.297796 -8.877317 22.515638 -8.354131 5.573125 -34.490498 -12.150783 39.958389 13.233554 -17.066554 -31.058977 5.749203 64.512396 -39.943064 13.950909 -15.290199 7.659652 -5.907873 -15.304339 -0.424855 4.801950 29.966536 15.020280 6.649224 16.498690 -5.369538 -4.907340 -37.309774 -6.653353 -0.918739 -14.315346 1.608628 -0.399949 5.824390 -2.157317 1.848179 -10.616205 4.868388 27.787258 1.740432 -68.391819 -9.850517 74.750057 162.170866 -89.736169 -163.708025 22.321495 -17.695165 23.661363 -8.282989 14.699874 0.000000 0.000000 0.000000 0.000000 0.000000 0.000000 0.000000 -4.957259 -33.607383 -4.391949 81.145271 9.321379 37.490149 1.021769 27.657465 8.386177 -0.324266 16.087245 0.533727 2.649610 -12.664052 -0.000000 0.000000 0.000000 0.000000 0.000000 0.000000 0.000000 
-1.702005 15.675785 -4.381440 -3.011116 -27.189189 1.113082 -9.010426 29.884563 -6.184695 -17.922751 -13.611488 -30.129317 34.356600 0.309406 93.812175 56.206525 -15.955486 -0.955949 -8.676846 20.305552 -8.622284 5.335886 -34.444059 -11.211276 38.550606 12.912322 -17.534548 -30.813979 5.038550 65.469923 -39.789039 13.045418 -16.062557 7.566492 -5.837163 -15.875461 -0.154424 4.542559 29.553663 14.784513 6.355772 16.932663 -5.232602 -4.600648 -37.162379 -6.710448 -1.029608 -14.713598 1.741247 -0.492866 5.987958 -2.144752 1.706998 -10.540256 4.829592 28.201989 1.888877 -67.206893 -9.962864 75.056541 160.542651 -89.574990 -163.469219 21.973976 -17.335244 23.411179 -8.248405 14.669795 0.000000 0.000000 0.000000 0.000000 0.000000 0.000000 0.000000 -4.699483 -33.574154 -3.934583 81.287958 9.854887 34.423391 1.213078 26.344210 6.324397 0.388859 13.174071 -0.814071 2.246946 -12.712934 -0.000000 0.000000 0.000000 0.000000 0.000000 0.000000 0.000000 
-1.799040 15.687725 -4.078680 -3.113116 -26.190777 0.908902 -8.844404 30.313459 -6.929025 -19.125251 -14.674003 -31.211069 32.873752 -0.299367 93.148267 52.685900 -12.659674 -0.117684 -8.326917 18.001734 -8.654370 5.112368 -34.453422 -10.317335 37.279460 12.497158 -17.889644 -30.541399 4.330076 66.291798 -39.605939 12.233971 -16.676545 7.507772 -5.832208 -16.428835 -0.031163 4.400552 29.157962 14.659448 6.197968 17.231995 -5.044526 -4.371996 -36.906819 -6.723561 -1.148253 -15.096666 1.899561 -0.606758 6.101501 -2.133595 1.528836 -10.493505 4.902228 28.580960 2.087305 -66.125036 -10.048184 75.329596 159.045048 -89.044910 -163.313713 21.521349 -16.598526 23.049950 -8.287465 14.648828 0.000000 0.000000 0.000000 0.000000 0.000000 0.000000 0.000000 -4.567583 -33.569590 -3.410940 81.166279 10.140968 32.048343 1.620665 25.935440 4.446009 0.849575 10.828430 -1.865304 1.845254 -12.752123 -0.000000 0.000000 0.000000 0.000000 0.000000 0.000000 0.000000 
